<?xml version="1.0" encoding="UTF-8"?>
<!DOCTYPE svg PUBLIC "-//W3C//DTD SVG 1.1//EN" "http://www.w3.org/Graphics/SVG/1.1/DTD/svg11.dtd">
<!-- Creator: CorelDRAW X7 -->
<svg xmlns="http://www.w3.org/2000/svg" xml:space="preserve" width="2362px" height="886px" version="1.1" style="shape-rendering:geometricPrecision; text-rendering:geometricPrecision; image-rendering:optimizeQuality; fill-rule:evenodd; clip-rule:evenodd"
viewBox="0 0 2362 886"
 xmlns:xlink="http://www.w3.org/1999/xlink"
 enable-background="new 0 0 90.7 19.1">
 <defs>
  <style type="text/css">
   <![CDATA[
    .fil0 {fill:#FEFEFE}
    .fil1 {fill:#FEFEFE;fill-rule:nonzero}
   ]]>
  </style>
 </defs>
 <g id="Слой_x0020_1">
  <metadata id="CorelCorpID_0Corel-Layer"/>
  <path class="fil0" d="M586 281l-270 -270 -269 270 0 239 543 0 -4 -239zm-180 180l-179 0 0 -180 88 79 91 -79 0 180z"/>
  <polygon class="fil0" points="91,289 179,289 179,85 179,85 179,12 135,12 91,12 91,143 "/>
  <polygon class="fil1" points="1091,15 1048,15 880,232 713,15 669,15 669,519 793,519 793,292 873,400 887,400 968,292 968,519 1091,519 "/>
  <path id="1" class="fil1" d="M1592 519l0 -8 -191 -500 -61 0 -193 500 0 8 130 0 22 -62 143 0 22 62 128 0zm-258 -164c21,-69 26,-93 36,-142 8,44 13,70 36,142l-72 0z"/>
  <polygon id="2" class="fil1" points="1858,519 1858,413 1807,413 1807,124 1853,124 1853,18 1638,18 1638,124 1683,124 1683,413 1633,413 1633,519 "/>
  <path id="3" class="fil1" d="M2315 519l0 -7 -85 -182c44,-33 59,-78 60,-135 0,-106 -67,-177 -169,-177l-177 0 0 501 124 0 0 -157 47 0 65 157 135 0zm-249 -264l0 -124 54 0c31,0 51,25 51,61 0,38 -20,63 -51,63l-54 0z"/>
  <path class="fil1" d="M131 766l-15 -14c-6,7 -11,10 -20,10 -17,0 -26,-12 -26,-35 0,-23 9,-35 26,-35 9,0 14,4 20,10l15 -14c-7,-7 -10,-9 -16,-12 -5,-2 -12,-3 -19,-3 -30,0 -48,20 -48,54 0,34 18,54 48,54 7,0 13,-1 19,-3 6,-3 9,-5 16,-12z"/>
  <path id="1" class="fil1" d="M260 733l0 -9c0,-31 -18,-51 -45,-51 -28,0 -45,20 -45,54 0,36 16,54 48,54 17,0 27,-4 39,-16l-13 -13c-8,7 -14,11 -25,11 -20,0 -27,-12 -28,-30l69 0zm-21 -15l-48 0c1,-14 7,-27 24,-27 17,0 23,13 24,27z"/>
  <path id="2" class="fil1" d="M395 727c0,-12 -1,-19 -2,-27 -4,-18 -17,-27 -36,-27 -13,0 -19,3 -28,12l0 -11 -21 0 0 149 22 0 0 -54c8,9 15,12 27,12 11,0 20,-3 26,-9 9,-9 12,-22 12,-45l0 0zm-21 0c0,25 -6,35 -22,35 -16,0 -22,-10 -22,-34 0,-12 1,-20 4,-26 3,-7 9,-10 18,-10 16,0 22,10 22,35l0 0z"/>
  <path id="3" class="fil1" d="M529 750c0,-12 -6,-20 -17,-25 10,-4 15,-12 15,-23 0,-17 -12,-28 -32,-28l-51 0 0 106 53 0c20,0 32,-11 32,-30zm-23 -46c0,9 -5,14 -15,14l-26 0 0 -27 26 0c10,0 15,5 15,13zm2 45c0,9 -6,15 -16,15l-27 0 0 -30 27 0c10,0 16,6 16,15z"/>
  <polygon id="4" class="fil1" points="788,780 788,674 767,674 721,746 721,674 700,674 700,780 721,780 767,707 767,780 "/>
  <polygon id="5" class="fil1" points="927,780 927,674 906,674 906,716 864,716 864,674 842,674 842,780 864,780 864,735 906,735 906,780 "/>
  <path id="6" class="fil1" d="M1059 780l0 -71c0,-24 -14,-36 -44,-36 -10,0 -18,1 -24,4 -5,2 -8,5 -13,11l14 13c3,-4 5,-6 8,-7 4,-2 8,-3 14,-3 17,0 24,6 24,20l0 7 -28 0c-23,0 -37,12 -37,31 0,21 14,32 37,32 13,0 20,-2 28,-10l0 9 21 0zm-21 -38c0,15 -6,22 -23,22 -14,0 -21,-5 -21,-15 0,-11 7,-16 19,-16l25 0 0 9z"/>
  <path id="7" class="fil1" d="M1168 723l-24 0c-12,0 -18,-6 -18,-16 0,-10 6,-16 18,-16l24 0 0 32zm-39 57l20 -39 19 0 0 39 22 0 0 -106 -50 0c-21,0 -35,13 -35,32 0,16 9,27 22,31l-23 43 25 0z"/>
  <polygon id="8" class="fil1" points="1296,780 1296,725 1339,780 1365,780 1319,724 1362,674 1336,674 1296,725 1296,674 1274,674 1274,780 "/>
  <path id="9" class="fil1" d="M1481 727c0,-21 -4,-32 -12,-42 -8,-8 -19,-12 -32,-12 -13,0 -24,4 -32,12 -9,10 -12,21 -12,42 0,21 3,32 12,42 8,8 19,12 32,12 13,0 24,-4 32,-12 9,-10 12,-21 12,-42zm-21 0c0,13 -2,22 -7,28 -3,5 -9,7 -16,7 -7,0 -12,-2 -16,-6 -5,-6 -7,-14 -7,-28 0,-13 1,-23 6,-29 4,-4 10,-7 17,-7 7,0 12,3 16,7 6,6 7,15 7,28z"/>
  <polygon id="10" class="fil1" points="1636,780 1636,674 1615,674 1583,737 1551,674 1530,674 1530,780 1552,780 1552,712 1576,761 1590,761 1614,712 1614,780 "/>
  <polygon id="11" class="fil1" points="1775,780 1775,674 1690,674 1690,780 1711,780 1711,693 1754,693 1754,780 "/>
  <path id="12" class="fil1" d="M1907 780l0 -71c0,-24 -15,-36 -44,-36 -10,0 -18,1 -24,4 -5,2 -8,5 -14,11l14 13c3,-4 6,-6 9,-7 4,-2 8,-3 14,-3 17,0 24,6 24,20l0 7 -29 0c-22,0 -36,12 -36,31 0,21 13,32 37,32 12,0 19,-2 28,-10l0 9 21 0zm-21 -38c0,15 -7,22 -23,22 -15,0 -21,-5 -21,-15 0,-11 6,-16 19,-16l25 0 0 9z"/>
  <polygon id="13" class="fil1" points="2045,780 2045,674 2024,674 2024,716 1981,716 1981,674 1960,674 1960,780 1981,780 1981,735 2024,735 2024,780 "/>
  <polygon id="14" class="fil1" points="2187,780 2187,674 2166,674 2120,746 2120,674 2099,674 2099,780 2120,780 2166,707 2166,780 "/>
  <path id="15" class="fil1" d="M2297 723l-25 0c-11,0 -17,-6 -17,-16 0,-10 6,-16 17,-16l25 0 0 32zm-40 57l21 -39 19 0 0 39 21 0 0 -106 -50 0c-20,0 -34,13 -34,32 0,16 9,27 22,31l-23 43 24 0z"/>
  <path id="16" class="fil1" d="M655 766l-14 -14c-7,8 -12,10 -21,10 -8,0 -15,-3 -19,-9 -5,-6 -7,-14 -7,-26 0,-12 2,-20 7,-26 4,-6 11,-9 19,-9 9,0 14,3 21,10l14 -14c-10,-11 -20,-15 -35,-15 -23,0 -47,14 -47,54 0,40 24,54 47,54 15,0 25,-4 35,-15z"/>
 </g>
</svg>
