<?xml version="1.0" encoding="UTF-8"?>
<!DOCTYPE svg PUBLIC "-//W3C//DTD SVG 1.1//EN" "http://www.w3.org/Graphics/SVG/1.1/DTD/svg11.dtd">
<!-- Creator: CorelDRAW X7 -->
<svg xmlns="http://www.w3.org/2000/svg" xml:space="preserve" width="2362px" height="2362px" version="1.1" style="shape-rendering:geometricPrecision; text-rendering:geometricPrecision; image-rendering:optimizeQuality; fill-rule:evenodd; clip-rule:evenodd"
viewBox="0 0 2362 2362"
 xmlns:xlink="http://www.w3.org/1999/xlink"
 enable-background="new 0 0 90.7 19.1">
 <defs>
  <style type="text/css">
   <![CDATA[
    .fil0 {fill:#FEFEFE}
    .fil1 {fill:#FEFEFE;fill-rule:nonzero}
   ]]>
  </style>
 </defs>
 <g id="Слой_x0020_1">
  <metadata id="CorelCorpID_0Corel-Layer"/>
  <g id="_1094905839472">
   <path class="fil0" d="M-678 1236l-844 -844 -840 844 0 746 1696 0 -12 -746zm-563 562l-559 0 0 -562 275 247 284 -247 0 562z"/>
   <polygon class="fil0" points="-2225,1261 -1950,1261 -1950,623 -1950,623 -1950,395 -2087,395 -2225,395 -2225,804 "/>
   <polygon class="fil1" points="900,392 765,392 240,1070 -281,392 -419,392 -419,1967 -31,1967 -31,1258 219,1595 262,1595 515,1258 515,1967 900,1967 "/>
   <path id="_1" class="fil1" d="M2465 1967l0 -25 -597 -1562 -190 0 -603 1562 0 25 406 0 69 -194 447 0 68 194 400 0 0 0zm-806 -513c66,-215 81,-290 113,-443 25,137 40,218 112,443l-225 0z"/>
   <polygon id="_2" class="fil1" points="3296,1967 3296,1636 3137,1636 3137,733 3281,733 3281,401 2609,401 2609,733 2750,733 2750,1636 2593,1636 2593,1967 "/>
   <path id="_3" class="fil1" d="M4724 1964l0 -19 -265 -569c137,-103 184,-243 187,-422 0,-331 -209,-553 -528,-553l-553 0 0 1563 388 0 0 -488 146 0 204 488 421 0 0 0zm-778 -822l0 -388 169 0c97,0 159,79 159,191 0,119 -62,197 -159,197l-169 0 0 0z"/>
  </g>
 </g>
 <g id="Слой_x0020_1_0">
  <metadata id="CorelCorpID_1Corel-Layer"/>
 </g>
</svg>
