<?xml version="1.0" encoding="UTF-8"?>
<!DOCTYPE svg PUBLIC "-//W3C//DTD SVG 1.1//EN" "http://www.w3.org/Graphics/SVG/1.1/DTD/svg11.dtd">
<!-- Creator: CorelDRAW X7 -->
<svg xmlns="http://www.w3.org/2000/svg" xml:space="preserve" width="2362px" height="886px" version="1.1" style="shape-rendering:geometricPrecision; text-rendering:geometricPrecision; image-rendering:optimizeQuality; fill-rule:evenodd; clip-rule:evenodd"
viewBox="0 0 2362 886"
 xmlns:xlink="http://www.w3.org/1999/xlink"
 enable-background="new 0 0 90.7 19.1">
 <defs>
  <style type="text/css">
   <![CDATA[
    .fil0 {fill:#FEFEFE}
    .fil1 {fill:#FEFEFE;fill-rule:nonzero}
   ]]>
  </style>
 </defs>
 <g id="Слой_x0020_1">
  <metadata id="CorelCorpID_0Corel-Layer"/>
  <g id="_128600074192">
   <path class="fil0" d="M586 281l-270 -270 -269 270 0 239 543 0 -4 -239zm-180 180l-179 0 0 -180 88 79 91 -79 0 180z"/>
   <polygon class="fil0" points="91,289 179,289 179,85 179,85 179,12 135,12 91,12 91,143 "/>
   <polygon class="fil1" points="1091,11 1048,11 880,228 713,11 669,11 669,515 793,515 793,288 873,396 887,396 968,288 968,515 1091,515 "/>
   <path id="1" class="fil1" d="M1592 515l0 -8 -191 -500 -61 0 -193 500 0 8 130 0 22 -62 143 0 22 62 128 0zm-258 -164c21,-69 26,-93 36,-142 8,44 13,70 36,142l-72 0z"/>
   <polygon id="2" class="fil1" points="1858,515 1858,409 1807,409 1807,120 1853,120 1853,14 1638,14 1638,120 1683,120 1683,409 1633,409 1633,515 "/>
   <path id="3" class="fil1" d="M2315 514l0 -6 -85 -182c44,-33 59,-78 60,-135 0,-106 -67,-177 -169,-177l-177 0 0 500 124 0 0 -156 47 0 65 156 135 0zm-249 -263l0 -124 54 0c31,0 51,25 51,61 0,38 -20,63 -51,63l-54 0z"/>
   <path class="fil1" d="M161 801l-20 -19c-9,9 -15,14 -28,14 -23,0 -35,-16 -35,-48 0,-32 12,-49 35,-49 13,0 20,6 28,14l20 -19c-9,-9 -14,-12 -22,-16 -7,-3 -16,-5 -26,-5 -40,0 -65,28 -65,74 0,47 24,75 65,75 10,0 19,-2 26,-5 8,-3 13,-7 22,-16z"/>
   <path id="1" class="fil1" d="M278 796c-8,0 -16,-3 -21,-9 -7,-7 -11,-19 -11,-39 0,-19 4,-32 10,-39 5,-6 13,-9 22,-9 8,0 16,3 22,9 6,8 9,20 9,39 0,20 -3,32 -9,39 -6,6 -14,9 -22,9zm0 26c17,0 32,-6 42,-16 13,-13 18,-30 18,-59 0,-25 -6,-47 -19,-59 -9,-8 -21,-13 -35,-13 -18,0 -34,8 -40,19 0,-20 3,-33 17,-42 17,-12 46,-10 65,-11l0 -26c-36,1 -67,1 -87,18 -18,16 -22,32 -22,95 0,24 2,49 9,64 9,19 28,30 52,30z"/>
   <path id="2" class="fil1" d="M518 747c0,-28 -5,-44 -17,-56 -11,-12 -26,-18 -43,-18 -18,0 -33,6 -43,18 -13,12 -18,28 -18,57 0,28 5,44 18,57 10,11 25,17 43,17 17,0 32,-6 43,-17 12,-13 17,-29 17,-58zm-29 1c0,17 -2,30 -9,38 -5,6 -13,10 -22,10 -9,0 -17,-3 -22,-9 -7,-8 -9,-19 -9,-38 0,-17 1,-31 8,-40 6,-6 13,-10 23,-10 9,0 17,4 22,10 7,8 9,21 9,39z"/>
   <path id="3" class="fil1" d="M704 748c0,-17 -1,-27 -3,-37 -6,-25 -24,-38 -50,-38 -17,0 -25,5 -37,17l0 -15 -29 0 0 204 29 0 0 -74c11,12 21,17 38,17 14,0 27,-5 36,-13 11,-12 16,-29 16,-61l0 0zm-29 0c0,34 -9,48 -30,48 -22,0 -31,-14 -31,-47 0,-17 2,-28 6,-36 4,-9 12,-14 24,-14 22,0 31,14 31,49l0 0z"/>
   <polygon id="4" class="fil1" points="801,820 801,745 860,820 895,820 833,743 891,675 856,675 801,744 801,675 771,675 771,820 "/>
   <path id="5" class="fil1" d="M1053 820l0 -97c0,-33 -21,-50 -61,-50 -14,0 -24,2 -32,6 -8,3 -11,7 -19,15l19 18c4,-5 7,-8 12,-10 5,-3 11,-4 19,-4 23,0 33,8 33,27l0 11 -39 0c-31,0 -50,16 -50,42 0,28 18,44 50,44 18,0 27,-3 39,-15l0 13 29 0zm-29 -52c0,21 -9,30 -32,30 -20,0 -29,-7 -29,-21 0,-14 9,-21 26,-21l35 0 0 12z"/>
   <polygon id="6" class="fil1" points="1379,820 1379,675 1350,675 1307,762 1264,675 1235,675 1235,820 1264,820 1264,727 1298,794 1316,794 1350,727 1350,820 "/>
   <path id="7" class="fil1" d="M1568 756l0 -13c0,-42 -23,-70 -61,-70 -38,0 -61,28 -61,74 0,49 22,75 65,75 23,0 38,-7 54,-23l-18 -17c-11,10 -20,15 -35,15 -27,0 -37,-16 -38,-41l94 0zm-28 -20l-66 0c1,-20 10,-38 33,-38 24,0 31,18 33,38z"/>
   <path id="8" class="fil1" d="M1691 796c-9,0 -16,-3 -22,-9 -6,-7 -10,-19 -10,-39 0,-19 4,-32 10,-39 5,-6 13,-9 22,-9 8,0 16,3 21,9 7,8 9,20 9,39 0,20 -3,32 -9,39 -5,6 -13,9 -21,9zm0 26c17,0 32,-6 42,-16 12,-13 17,-30 17,-59 0,-25 -6,-47 -18,-59 -9,-8 -22,-13 -36,-13 -17,0 -33,8 -40,19 0,-20 4,-33 18,-42 16,-12 46,-10 65,-11l0 -26c-37,1 -68,1 -87,18 -19,16 -22,32 -22,95 0,24 2,49 9,64 8,19 28,30 52,30z"/>
   <path id="9" class="fil1" d="M1932 756l0 -13c0,-42 -24,-70 -61,-70 -38,0 -62,28 -62,74 0,49 23,75 66,75 23,0 37,-7 54,-23l-19 -17c-10,10 -19,15 -34,15 -27,0 -37,-16 -38,-41l94 0zm-29 -20l-65 0c1,-20 9,-38 33,-38 24,0 31,18 32,38z"/>
   <path id="10" class="fil1" d="M2111 820l0 -145 -99 0 0 61c0,56 -15,58 -28,58l-4 0 0 26 13 0c29,0 47,-16 47,-77l0 -42 42 0 0 119 29 0z"/>
   <polygon id="11" class="fil1" points="2305,820 2305,675 2276,675 2214,774 2214,675 2185,675 2185,820 2214,820 2276,720 2276,820 "/>
  </g>
 </g>
</svg>
