<svg version="1.1" baseProfile="full" xmlns="http://www.w3.org/2000/svg" xmlns:xlink="http://www.w3.org/1999/xlink" xmlns:ev="http://www.w3.org/2001/xml-events" xml:space="preserve" x="0px" y="0px" width="23px" height="16px"  viewBox="0 0 23 16" preserveAspectRatio="none" shape-rendering="geometricPrecision"><path fill="#545454" d="M467.126,4498.1l0.177-.12a6.348,6.348,0,0,1-.3-1.8c0-1.58,4.312-3.21,6.355-3.6v-0.31l0.076-.08,0.731-.19,0.1,0.05,0.1,0.31a24.419,24.419,0,0,1,8.12-.04l0.177-.27,0.151-.05,0.706,0.05,0.076,0.17v0.29c3.026,0.85,6.053,1.8,6.153,3.26l0.076,1.04,0.177,0.05-0.05,1.97-0.782.49-3.909-.63-0.605-.56,0.429-1.66,0.252-.12a1.977,1.977,0,0,0,.05-0.44c0-.87-0.807-0.97-2.043-1.02-0.227,2.9-.4,3.14-1.79,4.02l3.43,2.26c1.563,1.02,2.118,1.6,2.244,3.3l0.252,3.53H469.42l0.252-3.53c0.127-1.7.681-2.28,2.245-3.3l3.43-2.26c-1.387-.88-1.564-1.12-1.791-4.02-1.463.05-2.118,0.08-2.118,1.12l0.252,0.07,0.908,1.27-0.3.7-3.808,1.85-0.807-.22Zm11.323,8.54a4.415,4.415,0,0,0,2.194-.54c-1.084-.99-1.438-1.43-1.438-1.87a2.337,2.337,0,0,1-.756.12,1.359,1.359,0,1,1,1.614-1.33,1.189,1.189,0,0,1-.5,1.04c0,0.85,1.639.63,2.118,1.31a2.84,2.84,0,0,0,1.084-2.35c0-2.29-1.916-3.63-4.312-3.63s-4.312,1.34-4.312,3.63S476.053,4506.64,478.449,4506.64Zm1.664-9.34c1.211,0,1.236-.17,1.816-2.41-1.185.05-2.32,0.08-3.48,0.08s-2.3-.03-3.48-0.08c0.58,2.24.605,2.41,1.816,2.41h3.328Z" transform="translate(-467 -4492)"></path></svg>