<?xml version="1.0" encoding="utf-8"?>
<svg version="1.1" baseProfile="full" xmlns="http://www.w3.org/2000/svg" xmlns:xlink="http://www.w3.org/1999/xlink" xmlns:ev="http://www.w3.org/2001/xml-events" xml:space="preserve" x="0px" y="0px" width="23px" height="23px" viewBox="0 0 23px 23px" preserveAspectRatio="none" shape-rendering="geometricPrecision"><path xmlns="http://www.w3.org/2000/svg" fill="#ff5715" d="M11.500,22.999 C5.159,22.999 -0.000,17.841 -0.000,11.499 C-0.000,5.158 5.159,-0.001 11.500,-0.001 C17.841,-0.001 23.000,5.158 23.000,11.499 C23.000,17.841 17.841,22.999 11.500,22.999 ZM11.500,2.299 C6.427,2.299 2.300,6.426 2.300,11.499 C2.300,16.572 6.427,20.699 11.500,20.699 C16.573,20.699 20.700,16.572 20.700,11.499 C20.700,6.426 16.573,2.299 11.500,2.299 ZM15.287,16.913 L10.686,12.313 C10.682,12.308 10.679,12.302 10.674,12.297 C10.626,12.248 10.582,12.195 10.544,12.137 C10.523,12.107 10.510,12.075 10.493,12.044 C10.474,12.009 10.453,11.976 10.438,11.939 C10.422,11.900 10.412,11.859 10.401,11.819 C10.391,11.787 10.379,11.757 10.373,11.724 C10.358,11.650 10.350,11.575 10.350,11.499 L10.350,6.395 C10.350,5.761 10.865,5.246 11.500,5.246 C12.135,5.246 12.650,5.761 12.650,6.395 L12.650,11.023 L16.913,15.286 C17.362,15.735 17.362,16.463 16.913,16.913 C16.463,17.361 15.736,17.361 15.287,16.913 Z"/></svg>